<?xml version="1.0" encoding="utf-8"?>
<!-- Generator: Adobe Illustrator 15.0.2, SVG Export Plug-In . SVG Version: 6.00 Build 0)  -->
<!DOCTYPE svg PUBLIC "-//W3C//DTD SVG 1.1//EN" "http://www.w3.org/Graphics/~/Svg/1.1/DTD/svg11.dtd">
<svg version="1.1" id="圖層_1" xmlns="http://www.w3.org/2000/svg" xmlns:xlink="http://www.w3.org/1999/xlink" x="0px" y="0px"
	 width="300px" height="65px" viewBox="0 0 300 65" enable-background="new 0 0 300 65" xml:space="preserve">
<g>
	<g>
		<g>
			<path fill="#FFFFFF" d="M93.573,9.84h15.832c3.447,0,5.883,0.819,7.307,2.457c1.432,1.641,1.871,3.977,1.349,7.003
				c-0.558,3.109-1.913,5.539-4.096,7.282c-2.177,1.754-5.191,2.634-9.022,2.634h-5.219l-2.011,11.429h-9.566L93.573,9.84z
				 M100.827,22.975h2.334c1.836,0,3.18-0.317,4.036-0.959c0.85-0.63,1.372-1.457,1.547-2.441c0.16-0.971-0.009-1.792-0.536-2.457
				c-0.534-0.683-1.677-1.011-3.465-1.011h-2.709L100.827,22.975z"/>
		</g>
		<g>
			<path fill="#FFFFFF" d="M120.797,18.334h8.562l-3.936,22.311h-8.553L120.797,18.334z M122.294,9.84h8.563l-1.027,5.822h-8.556
				L122.294,9.84z"/>
		</g>
		<g>
			<path fill="#FFFFFF" d="M134.457,9.84h8.573l-5.428,30.805h-8.574L134.457,9.84z"/>
		</g>
		<g>
			<path fill="#FFFFFF" d="M141.82,29.551c0.604-3.404,2.245-6.211,4.931-8.415c2.689-2.215,5.981-3.305,9.894-3.305
				c4.469,0,7.621,1.291,9.446,3.887c1.462,2.086,1.931,4.655,1.39,7.711c-0.604,3.43-2.236,6.249-4.898,8.434
				c-2.668,2.191-6.002,3.285-10.027,3.285c-3.583,0-6.328-0.901-8.218-2.729C142.003,36.169,141.17,33.208,141.82,29.551z
				 M150.397,29.536c-0.348,1.981-0.207,3.453,0.432,4.416c0.642,0.946,1.565,1.422,2.787,1.422c1.231,0,2.313-0.468,3.288-1.403
				c0.951-0.938,1.615-2.453,1.978-4.524c0.345-1.932,0.199-3.369-0.437-4.319c-0.631-0.94-1.534-1.415-2.706-1.415
				c-1.248,0-2.367,0.479-3.354,1.437C151.407,26.106,150.745,27.57,150.397,29.536z"/>
		</g>
		<g>
			<path fill="#FFFFFF" d="M182.329,9.84l-1.498,8.494H187c0,0-1.123,1.792-1.668,3.286c-0.395,1.102-0.777,2.936-0.777,2.936
				l-4.822,0.038l-1.396,7.908c-0.174,0.95-0.19,1.57-0.06,1.887c0.189,0.476,0.64,0.705,1.341,0.705
				c0.635,0,1.547-0.177,2.743-0.539l-0.407,5.901c-2.197,0.468-4.207,0.694-6.05,0.694c-2.122,0-3.649-0.271-4.563-0.814
				c-0.914-0.548-1.508-1.374-1.795-2.494c-0.293-1.105-0.207-2.906,0.224-5.403l1.389-7.844l-1.561-0.038
				c0,0-0.136-1.569-1.252-3.573c-1.158-2.075-2.451-2.671-2.451-2.671l6.36,0.023l0.729-4.102L182.329,9.84z"/>
		</g>
	</g>
	<g>
		<g>
			<g>
				<path fill="#FFFFFF" d="M210.092,24.906l8.264-1.007l-2.385,12.315c-3.154,1.921-6.158,0.838-8.162,2.134
					c-1.828,1.188-3.383,1.862-6.391,2.526c-3.568,0.793-8.021-0.319-10.109-1.572c-2.082-1.241-3.543-3.1-4.377-5.569
					c-0.834-2.46-0.973-5.292-0.412-8.486c0.603-3.369,1.81-6.286,3.64-8.775c1.823-2.483,4.19-4.378,7.09-5.66
					c2.269-1,5.207-2.079,8.731-2.079c3.41,0,5.855,0.891,7.439,1.502c1.578,0.622,2.809,1.581,3.689,2.875
					c0.893,1.295,1.94,3.936,1.643,6.615c0,0-5.92-0.147-9.471,1.739c0.141-2.75-0.654-3.841-1.459-4.463
					c-0.789-0.607-1.883-0.913-3.283-0.913c-2.088,0-3.889,0.725-5.377,2.174c-1.502,1.449-2.52,3.746-3.08,6.878
					c-0.584,3.335-0.375,5.712,0.627,7.147c1,1.425,2.627,2.144,4.859,2.144c1.067,0,2.113-0.152,3.133-0.457
					c1.021-0.313,2.223-0.843,3.602-1.585L210.092,24.906z"/>
			</g>
			<g>
				<path fill="#FFFFFF" d="M228.579,25.559l-8.022-0.864c0.563-1.426,1.205-2.555,1.926-3.37c0.729-0.822,1.694-1.527,2.893-2.131
					c0.867-0.431,2-0.773,3.414-1.012c1.418-0.234,2.922-0.351,4.516-0.351c2.568,0,4.598,0.14,6.104,0.427
					c1.506,0.291,2.698,0.882,3.569,1.791c0.623,0.638,1.033,1.529,1.252,2.68c0.222,1.155,0.234,2.259,0.045,3.313l-1.729,9.851
					c-0.191,1.058-0.271,1.879-0.24,2.467c0.025,0.602,0.183,1.363,0.471,2.283h-8.032c-0.228-0.569-0.351-1.002-0.396-1.309
					c-0.043-0.303-0.058-0.773-0.037-1.424c-1.316,1.088-2.566,1.857-3.754,2.316c-1.623,0.615-3.427,0.922-5.435,0.922
					c-2.668,0-4.584-0.611-5.742-1.849c-1.157-1.228-1.586-2.76-1.271-4.56c0.308-1.701,1.043-3.09,2.23-4.18
					c1.186-1.099,3.166-1.906,5.939-2.438c3.322-0.641,5.482-1.094,6.482-1.354c1-0.257,2.067-0.599,3.206-1.023
					c0.179-1.052,0.095-1.792-0.271-2.203c-0.354-0.418-1.082-0.63-2.178-0.63c-1.396,0-2.494,0.215-3.269,0.664
					C229.641,23.929,229.084,24.594,228.579,25.559z M235.209,30.057c-1.256,0.418-2.557,0.792-3.877,1.12
					c-1.818,0.449-3.006,0.906-3.547,1.362c-0.551,0.457-0.883,0.986-0.984,1.574c-0.127,0.668,0.01,1.226,0.408,1.652
					c0.395,0.422,1.051,0.635,1.961,0.635c0.951,0,1.883-0.228,2.777-0.685c0.906-0.472,1.58-1.032,2.049-1.698
					c0.459-0.668,0.787-1.532,0.963-2.596L235.209,30.057z"/>
			</g>
			<g>
				<path fill="#FFFFFF" d="M271.045,31.604H253.9c-0.084,1.381,0.102,2.407,0.572,3.08c0.655,0.963,1.653,1.445,2.983,1.445
					c0.834,0,1.672-0.217,2.502-0.631c0.511-0.264,1.086-0.739,1.748-1.402l8.283,0.775c-1.689,2.238-3.523,3.846-5.517,4.827
					c-1.99,0.97-4.688,1.452-8.09,1.452c-2.965,0-5.219-0.414-6.768-1.25c-1.543-0.828-2.715-2.15-3.512-3.974
					c-0.791-1.81-0.972-3.942-0.543-6.392c0.617-3.493,2.231-6.315,4.848-8.478c2.613-2.15,5.893-3.226,9.824-3.226
					c3.203,0,5.635,0.476,7.315,1.445c1.685,0.962,2.843,2.362,3.482,4.203c0.645,1.838,0.704,4.226,0.188,7.166L271.045,31.604z
					 M263.077,27.514c0.116-1.652-0.113-2.837-0.711-3.559c-0.601-0.705-1.488-1.067-2.666-1.067c-1.353,0-2.531,0.543-3.543,1.626
					c-0.642,0.668-1.142,1.664-1.513,3H263.077z"/>
			</g>
			<g>
				<path fill="#FFFFFF" d="M281.693,25.559l-8.028-0.864c0.56-1.426,1.205-2.555,1.931-3.37c0.727-0.822,1.686-1.527,2.889-2.131
					c0.863-0.431,2-0.773,3.422-1.012c1.41-0.234,2.912-0.351,4.512-0.351c2.566,0,4.596,0.14,6.098,0.427
					c1.51,0.291,2.705,0.882,3.578,1.791c0.613,0.638,1.033,1.529,1.248,2.68c0.219,1.155,0.238,2.259,0.051,3.313l-1.742,9.851
					c-0.188,1.058-0.266,1.879-0.235,2.467c0.03,0.602,0.188,1.363,0.476,2.283h-8.031c-0.219-0.569-0.353-1.002-0.396-1.309
					c-0.049-0.303-0.062-0.773-0.049-1.424c-1.313,1.088-2.56,1.857-3.75,2.316c-1.623,0.615-3.433,0.922-5.438,0.922
					c-2.66,0-4.574-0.611-5.732-1.849c-1.166-1.228-1.586-2.76-1.268-4.56c0.299-1.701,1.045-3.09,2.235-4.18
					c1.183-1.099,3.151-1.906,5.929-2.438c3.323-0.641,5.479-1.094,6.489-1.354c0.992-0.257,2.06-0.599,3.192-1.023
					c0.188-1.052,0.097-1.792-0.264-2.203c-0.35-0.418-1.076-0.63-2.174-0.63c-1.398,0-2.488,0.215-3.273,0.664
					C282.754,23.929,282.195,24.594,281.693,25.559z M288.318,30.057c-1.254,0.418-2.541,0.792-3.879,1.12
					c-1.811,0.449-3,0.906-3.532,1.362c-0.558,0.457-0.894,0.986-0.998,1.574c-0.123,0.668,0.012,1.226,0.414,1.652
					c0.396,0.422,1.047,0.635,1.948,0.635c0.953,0,1.892-0.228,2.783-0.685c0.904-0.472,1.58-1.032,2.053-1.698
					c0.459-0.668,0.785-1.532,0.97-2.596L288.318,30.057z"/>
			</g>
			<g>
				<polygon fill="#FFFFFF" points="215.193,41.098 207.051,41.098 209.081,29.265 217.211,29.265 				"/>
			</g>
		</g>
		<g>
			<g>
				<path fill="#FFFFFF" d="M195.984,31.739c0,0,8.021-10.101,22.302-7.769c-0.697,3.32-1.369,6.954-1.369,6.954
					S209.422,25.171,195.984,31.739z"/>
			</g>
		</g>
	</g>
</g>
<g>
	<g>
		<g>
			<path fill="#FFFFFF" d="M48.425,10.297c0.596,2.291-2.492,0.886-3.798,1.267C44.697,9.948,46.745,10.31,48.425,10.297z"/>
		</g>
		<g>
			<path fill="#FFFFFF" d="M50.953,11.564c3.904-0.039,7.172,0.081,12.657-0.629c2.742,2.16,1.666,5.735-0.637,7.591
				c5.082,2.966,3.941,1.982,11.566,2.658c-4.711,1.36,0.437,2.591-5.237,1.136c-2.708,2.351-2.837,7.288-5.06,10.127
				c1.252,5.28,6.193,6.876,8.228,11.385c-2.583,5.857-9.842,7.029-17.088,8.227c3.401-2.927,8.969-3.688,11.391-7.595
				c-1.926-3.348-6.267-4.28-8.227-7.59c-5.615,3.373-12.764,7.012-20.88,4.426c7.205-3.095,22.075-7.659,20.248-15.815
				c-1.319-5.886-13.641-4.819-18.979-8.227c5.974-4.498,14.732,5.328,20.881,0.639c0.113-2.447-3.967-0.679-5.063-1.905
				C57.729,13.103,52.114,13.829,50.953,11.564z"/>
		</g>
		<g>
			<path fill="#FFFFFF" d="M47.157,12.198c1.439,0.457,3.234,0.565,4.429,1.263C50.856,15.212,47.15,14.642,47.157,12.198z"/>
		</g>
		<g>
			<path fill="#FFFFFF" d="M38.934,17.898c-0.943,2.641-3.196,1.11-5.695,1.26C33.936,17.54,36.632,17.911,38.934,17.898z"/>
		</g>
		<g>
			<path fill="#FFFFFF" d="M39.563,38.137c-1.588,2.473-6.082,0.73-8.855,0.633C32.142,35.859,36.68,38.529,39.563,38.137z"/>
		</g>
		<g>
			<path fill="#FFFFFF" d="M30.708,39.406c0.091,1.775-1.55,1.822-3.163,1.895C27.311,39.382,29.604,39.99,30.708,39.406z"/>
		</g>
		<g>
			<path fill="#FFFFFF" d="M35.769,41.3c-0.05,1.931-4.135,1.483-5.061,0.634C32.289,40.208,33.138,41.415,35.769,41.3z"/>
		</g>
		<g>
			<path fill="#FFFFFF" d="M50.319,48.895c2.349-0.449,2.715,1.084,5.062,0.633C55.074,50.4,49.681,51.061,50.319,48.895z"/>
		</g>
		<g>
			<path fill="#FFFFFF" d="M45.26,53.32c2.736-1.861,6.464,0.69,9.491,0.63C52.237,55.602,47.294,54.257,45.26,53.32z"/>
		</g>
	</g>
	<g>
		<g>
			<path fill="#FFFFFF" d="M30.375,10.569c0,0,13.998-1.874,23.335-6.538C42.419,13.727,30.375,10.569,30.375,10.569z"/>
		</g>
		<g>
			<path fill="#FFFFFF" d="M50.089,60.032c-16.557,0-29.98-12.585-29.98-28.116c0-15.527,13.424-28.115,29.98-28.115
				c5.202,0,10.095,1.242,14.361,3.426c-4.707-3.047-10.314-4.83-16.346-4.83c-16.624,0-30.094,13.478-30.094,30.104
				c0,16.623,13.471,30.101,30.094,30.101c9.11,0,17.268-4.055,22.786-10.439C65.497,57.029,58.173,60.032,50.089,60.032z"/>
		</g>
		<g>
			<path fill="#FFFFFF" d="M34.808,10.336c-0.932,0-1.632-0.237-1.632-0.237S15.181,41.432,48.622,56.354
				C34.063,47.564,23.839,33.495,34.808,10.336z"/>
		</g>
		<g>
			<path fill="#FFFFFF" d="M37.494,9.865c0,0-6.674,23.387,9.441,35.898C32.499,30.363,39.007,9.637,39.007,9.637L37.494,9.865z"/>
		</g>
		<g>
			<path fill="#FFFFFF" d="M42.508,8.233c0,0,0.784,16.345,7.32,23.816c-6.303-10.035-5.455-23.936-5.455-23.936L42.508,8.233z"/>
		</g>
		<g>
			<path fill="#FFFFFF" d="M15.998,19.155c0,0-4.162,0.715-1.056,2.905c7.649,5.399,33.548,0.616,33.548,0.616l5.833,0.029
				c0,0-33.059,8.433-42.287,0.201C9.153,20.333,15.998,19.155,15.998,19.155z"/>
		</g>
		<g>
			<path fill="#FFFFFF" d="M17.571,48.13c0,0-5.771,2.479-2.81,4.865c7.97,6.425,40.021-3.193,39.229-2.845l11.306-3.519
				c0,0-46.342,19.481-54.965,6.616C8.18,50.037,17.571,48.13,17.571,48.13z"/>
		</g>
		<g>
			<path fill="#FFFFFF" d="M8.688,34.764c0,0-6.332,2.037-1.458,4.027c4.254,1.734,43.125-2.37,43.125-2.37l0,0
				c0,0-40.854,9.546-47.146,3.538C-0.664,36.261,8.688,34.764,8.688,34.764z"/>
		</g>
	</g>
	<g>
		<g>
			<g>
				<path fill="#FFFFFF" d="M82.216,4.3c-1.534,0-2.777,1.244-2.777,2.778c0,1.532,1.243,2.777,2.777,2.777
					c1.533,0,2.775-1.245,2.775-2.777C84.991,5.544,83.75,4.3,82.216,4.3z M82.216,9.414c-1.29,0-2.337-1.047-2.337-2.335
					c0-1.29,1.047-2.335,2.337-2.335c1.289,0,2.334,1.045,2.334,2.335C84.551,8.367,83.505,9.414,82.216,9.414z"/>
			</g>
		</g>
		<g>
			<g>
				<path fill="#FFFFFF" d="M80.913,8.637V5.356h1.455c0.293,0,0.514,0.028,0.667,0.086c0.151,0.063,0.275,0.164,0.364,0.314
					c0.092,0.154,0.136,0.315,0.136,0.496c0,0.234-0.074,0.428-0.225,0.588c-0.15,0.159-0.385,0.26-0.697,0.304
					c0.113,0.055,0.202,0.109,0.262,0.164C83,7.425,83.12,7.573,83.234,7.744l0.571,0.893h-0.547l-0.435-0.682
					c-0.125-0.196-0.232-0.349-0.314-0.452c-0.08-0.104-0.153-0.176-0.22-0.22c-0.063-0.042-0.13-0.07-0.196-0.088
					c-0.049-0.01-0.131-0.011-0.243-0.011h-0.505v1.453H80.913z M81.345,6.805h0.935c0.199,0,0.355-0.019,0.467-0.06
					C82.858,6.701,82.943,6.637,83,6.548c0.06-0.094,0.087-0.189,0.087-0.296c0-0.155-0.057-0.283-0.169-0.382
					c-0.11-0.1-0.29-0.152-0.534-0.152h-1.04v1.087H81.345z"/>
			</g>
		</g>
	</g>
</g>
<g>
	<g>
		<path fill="#FFFFFF" d="M222.423,49.96h-2.914v-1.052h7.098v1.052h-2.93v8.534h-1.254V49.96L222.423,49.96z"/>
	</g>
	<g>
		<path fill="#FFFFFF" d="M227.433,55.267c0.024,1.693,1.092,2.391,2.344,2.391c0.896,0,1.451-0.156,1.907-0.341l0.228,0.882
			c-0.441,0.199-1.21,0.438-2.304,0.438c-2.106,0-3.388-1.406-3.388-3.47c0-2.092,1.237-3.724,3.245-3.724
			c2.245,0,2.828,1.974,2.828,3.238c0,0.255-0.014,0.456-0.043,0.598L227.433,55.267z M231.085,54.371
			c0.014-0.783-0.327-2.035-1.72-2.035c-1.283,0-1.822,1.167-1.922,2.035H231.085z"/>
	</g>
	<g>
		<path fill="#FFFFFF" d="M238.749,58.255c-0.325,0.156-1.051,0.397-1.973,0.397c-2.08,0-3.428-1.408-3.428-3.529
			c0-2.118,1.447-3.671,3.697-3.671c0.74,0,1.395,0.186,1.737,0.371l-0.286,0.954c-0.299-0.158-0.768-0.326-1.451-0.326
			c-1.577,0-2.434,1.179-2.434,2.616c0,1.592,1.022,2.573,2.39,2.573c0.713,0,1.181-0.17,1.536-0.326L238.749,58.255z"/>
	</g>
	<g>
		<path fill="#FFFFFF" d="M240.216,48.397h1.251v4.296h0.028c0.199-0.357,0.512-0.685,0.898-0.886
			c0.369-0.226,0.811-0.355,1.279-0.355c0.928,0,2.406,0.568,2.406,2.947v4.095h-1.255v-3.953c0-1.126-0.41-2.047-1.591-2.047
			c-0.812,0-1.438,0.567-1.679,1.249c-0.072,0.174-0.087,0.354-0.087,0.599v4.152h-1.251L240.216,48.397L240.216,48.397z"/>
	</g>
	<g>
		<path fill="#FFFFFF" d="M248.11,53.476c0-0.728-0.015-1.296-0.058-1.865h1.109l0.073,1.124h0.028
			c0.342-0.638,1.136-1.282,2.276-1.282c0.949,0,2.433,0.568,2.433,2.935v4.107h-1.257v-3.967c0-1.11-0.409-2.051-1.593-2.051
			c-0.81,0-1.449,0.585-1.675,1.282c-0.058,0.158-0.087,0.384-0.087,0.583v4.153h-1.25L248.11,53.476L248.11,53.476z"/>
	</g>
	<g>
		<path fill="#FFFFFF" d="M258.805,58.652c-1.85,0-3.301-1.364-3.301-3.542c0-2.304,1.521-3.658,3.412-3.658
			c1.978,0,3.315,1.438,3.315,3.527c0,2.562-1.778,3.672-3.414,3.672L258.805,58.652L258.805,58.652z M258.847,57.713
			c1.196,0,2.094-1.124,2.094-2.69c0-1.163-0.585-2.631-2.067-2.631c-1.462,0-2.103,1.365-2.103,2.676
			c0,1.508,0.853,2.646,2.063,2.646H258.847z"/>
	</g>
	<g>
		<path fill="#FFFFFF" d="M263.811,48.397h1.254v10.097h-1.254V48.397z"/>
	</g>
	<g>
		<path fill="#FFFFFF" d="M269.94,58.652c-1.85,0-3.301-1.364-3.301-3.542c0-2.304,1.521-3.658,3.416-3.658
			c1.977,0,3.314,1.438,3.314,3.527c0,2.562-1.778,3.672-3.416,3.672L269.94,58.652L269.94,58.652z M269.979,57.713
			c1.199,0,2.095-1.124,2.095-2.69c0-1.163-0.582-2.631-2.063-2.631c-1.464,0-2.104,1.365-2.104,2.676
			c0,1.508,0.854,2.646,2.062,2.646H269.979z"/>
	</g>
	<g>
		<path fill="#FFFFFF" d="M280.848,57.486c0,1.592-0.326,2.546-0.98,3.158c-0.682,0.607-1.65,0.825-2.516,0.825
			c-0.827,0-1.739-0.202-2.292-0.571l0.313-0.967c0.456,0.298,1.168,0.554,2.017,0.554c1.283,0,2.223-0.666,2.223-2.417v-0.752
			h-0.027c-0.372,0.641-1.127,1.153-2.195,1.153c-1.706,0-2.931-1.453-2.931-3.373c0-2.335,1.523-3.643,3.117-3.643
			c1.196,0,1.837,0.61,2.147,1.184h0.028l0.044-1.027h1.111c-0.043,0.486-0.058,1.04-0.058,1.879v3.997H280.848z M279.596,54.314
			c0-0.199-0.013-0.386-0.067-0.556c-0.231-0.736-0.827-1.338-1.753-1.338c-1.192,0-2.048,1.012-2.048,2.617
			c0,1.336,0.699,2.476,2.035,2.476c0.781,0,1.478-0.481,1.733-1.296c0.071-0.2,0.1-0.44,0.1-0.669V54.314L279.596,54.314z"/>
	</g>
	<g>
		<path fill="#FFFFFF" d="M283.506,50.345c-0.469,0-0.781-0.367-0.781-0.809c0-0.442,0.326-0.801,0.812-0.801
			c0.481,0,0.796,0.358,0.796,0.801c0,0.441-0.314,0.809-0.811,0.809H283.506z M282.907,58.494V51.61h1.252v6.884H282.907z"/>
	</g>
	<g>
		<path fill="#FFFFFF" d="M286.946,55.267c0.031,1.693,1.096,2.391,2.351,2.391c0.896,0,1.448-0.156,1.904-0.341l0.229,0.882
			c-0.441,0.199-1.208,0.438-2.307,0.438c-2.101,0-3.383-1.406-3.383-3.47c0-2.092,1.237-3.724,3.243-3.724
			c2.246,0,2.829,1.974,2.829,3.238c0,0.255-0.012,0.456-0.042,0.598L286.946,55.267z M290.604,54.371
			c0.017-0.783-0.324-2.035-1.721-2.035c-1.281,0-1.818,1.167-1.918,2.035H290.604z"/>
	</g>
	<g>
		<path fill="#FFFFFF" d="M293.191,57.229c0.385,0.228,1.038,0.483,1.664,0.483c0.898,0,1.323-0.441,1.323-1.026
			c0-0.595-0.357-0.923-1.267-1.262c-1.252-0.458-1.836-1.128-1.836-1.949c0-1.11,0.911-2.023,2.377-2.023
			c0.699,0,1.311,0.186,1.679,0.43l-0.298,0.896c-0.271-0.158-0.771-0.401-1.407-0.401c-0.743,0-1.139,0.43-1.139,0.942
			c0,0.581,0.397,0.837,1.295,1.179c1.181,0.438,1.807,1.038,1.807,2.077c0,1.222-0.952,2.077-2.56,2.077
			c-0.755,0-1.454-0.2-1.935-0.484L293.191,57.229z"/>
	</g>
</g>
<text transform="matrix(1 0 0 1 86.8242 59.3906)" fill="#FFFFFF" font-family="'AdobeFanHeitiStd-Bold-B5pc-H'" font-size="16">藏識科技有限公司</text>
</svg>
